<svg width="32" height="32" viewBox="0 0 32 32" fill="none" xmlns="http://www.w3.org/2000/svg">
  <style>
    /* Базовый цвет для светлой темы */
    .main-path { fill: #253241; }

    /* Цвет для темной темы */
    @media (prefers-color-scheme: dark) {
      .main-path { fill: #ffffff; }
    }
  </style>
  <g clip-path="url(#clip0_3109_22)">
    <path class="main-path" d="M23.8076 0C28.3319 0 32 3.66807 32 8.19238V23.8076C32 28.3319 28.3319 32 23.8076 32H8.19238C3.66807 32 0 28.3319 0 23.8076V8.19238C0 3.66807 3.66807 0 8.19238 0H23.8076ZM22.8486 5C21.6609 5.00017 20.6985 5.98075 20.6982 7.19043V12.2471C20.6981 13.1147 20.0072 13.8182 19.1553 13.8184H12.8555C12.0036 13.8183 11.3127 13.1147 11.3125 12.2471V7.19629C11.3125 5.98331 10.3472 5 9.15625 5C7.96539 5.00008 7.00002 5.98336 7 7.19629V24.8037C7.00002 26.0166 7.96539 26.9999 9.15625 27C10.3472 27 11.3125 26.0167 11.3125 24.8037V19.0938C11.3126 18.226 12.0035 17.5226 12.8555 17.5225H19.1553C20.0072 17.5226 20.6982 18.226 20.6982 19.0938V24.8096C20.6985 26.0193 21.6609 26.9998 22.8486 27C24.0365 27 24.9998 26.0194 25 24.8096V7.19043C24.9998 5.98065 24.0365 5 22.8486 5Z" />
  </g>
  <defs>
    <clipPath id="clip0_3109_22">
      <rect width="32" height="32" fill="white"/>
    </clipPath>
  </defs>
</svg>