<svg width="120" height="15" viewBox="0 0 120 15" fill="none" xmlns="http://www.w3.org/2000/svg">
<path d="M113.023 11.0217L110.005 0.560059H106.781L111.22 14.3296H113.749V11.0217H113.023Z" fill="black"/>
<path d="M113.757 11.0217L116.774 0.560059H119.998L115.559 14.3296H113.03V11.0217H113.757Z" fill="black"/>
<path d="M71.6671 10.4095C71.6671 9.41326 71.0294 8.99451 70.0731 8.91512L66.8438 8.61623C64.053 8.35728 62.5977 7.26084 62.5977 4.61022C62.5977 1.95966 64.392 0.504639 66.9632 0.504639H74.0992V3.01563H67.1624C66.1659 3.01563 65.5282 3.53401 65.5282 4.53035C65.5282 5.52663 66.1857 6.00507 67.1827 6.085L70.4715 6.36413C72.9635 6.58314 74.5977 7.71952 74.5977 10.3898C74.5977 13.0602 72.8639 14.4954 70.412 14.4954H62.9569V11.9844H70.1325C71.0696 11.9844 71.6671 11.3467 71.6671 10.4101V10.4095Z" fill="black"/>
<path d="M98.6904 0.283447C103.076 0.283447 105.847 3.08643 105.847 7.48014C105.847 11.8738 102.957 14.7166 98.5709 14.7166C94.1852 14.7166 91.4141 11.8738 91.4141 7.48014C91.4141 3.08643 94.3047 0.283447 98.6904 0.283447ZM102.837 7.4998C102.837 4.55754 101.122 2.82812 98.6299 2.82812C96.1382 2.82812 94.4235 4.55754 94.4235 7.4998C94.4235 10.442 96.1382 12.1714 98.6299 12.1714C101.122 12.1714 102.837 10.442 102.837 7.4998Z" fill="black"/>
<path d="M43.7438 4.47027C43.7438 6.02498 42.8412 7.22057 41.6373 7.73902V7.77896C42.901 7.95852 43.5433 8.85521 43.5627 10.0711L43.6231 14.4954H40.6943L40.6345 10.5495C40.6145 9.6725 40.0923 9.1344 39.0496 9.1344H34.1744V14.4954H31.2461V0.504639H39.3304C41.979 0.504639 43.7438 1.83985 43.7438 4.47081V4.47027ZM40.7945 4.86934C40.7945 3.6737 40.1527 3.01573 38.9494 3.01573H34.1744V6.72241H38.9887C40.0918 6.72241 40.7945 6.06492 40.7945 4.8688V4.86934Z" fill="black"/>
<path d="M53.2294 0.283447C57.6146 0.283447 60.3863 3.08643 60.3863 7.48014C60.3863 11.8738 57.4957 14.7166 53.11 14.7166C48.7243 14.7166 45.9531 11.8738 45.9531 7.48014C45.9531 3.08643 48.8437 0.283447 53.2294 0.283447ZM57.3758 7.4998C57.3758 4.55754 55.6611 2.82812 53.1689 2.82812C50.6773 2.82812 48.9626 4.55754 48.9626 7.4998C48.9626 10.442 50.6773 12.1714 53.1689 12.1714C55.6611 12.1714 57.3758 10.442 57.3758 7.4998Z" fill="black"/>
<path d="M0 14.3296V0.560059H2.89698V5.94083H9.49681V0.560059H12.3871V14.3296H9.49681V8.34109H2.89698V14.3296H0Z" fill="black"/>
<path d="M21.8779 0.283447C26.263 0.283447 29.0347 3.08643 29.0347 7.48014C29.0347 11.8738 26.1441 14.7166 21.7584 14.7166C17.3727 14.7166 14.6016 11.8738 14.6016 7.48014C14.6016 3.08643 17.4922 0.283447 21.8779 0.283447ZM26.0242 7.4998C26.0242 4.55754 24.3095 2.82812 21.8174 2.82812C19.3257 2.82812 17.611 4.55754 17.611 7.4998C17.611 10.442 19.3257 12.1714 21.8174 12.1714C24.3095 12.1714 26.0242 10.442 26.0242 7.4998Z" fill="black"/>
<path d="M76.8125 14.3296V0.560059H79.7095V5.94083H86.3093V0.560059H89.1996V14.3296H86.3093V8.34109H79.7095V14.3296H76.8125Z" fill="black"/>
</svg>
